# xmcd
#
# Track frame offsets:
#	150
#	17221
#	37824
#	47768
#	66408
#	80389
#	107005
#	119902
#	142297
#	154291
#	169875
#	176270
#	189645
#
# Disc length: 3066 seconds
# Revision: 0
# Processed by: cddbd v1.5.2PL0 Copyright (c) Steve Scherf et al.
# Submitted via: dBpowerAMP V12.0
#
DISCID=ba0bf80d
DTITLE=TIM BRANSTON - SLIDIN' DOWN THE NINE
DYEAR=2000
DGENRE=Blues
TTITLE0=Slidin' down the nine
TTITLE1=Up north whistle
TTITLE2=Big leg mama
TTITLE3=Officer Samora
TTITLE4=Tired and Hungry
TTITLE5=Whisky Bottle Blues
TTITLE6=Bootleg Blues
TTITLE7=Judgement day
TTITLE8=Right From Wrong
TTITLE9=Boss Cat
TTITLE10=Song for Tiggy
TTITLE11=Mr Mead Lux Lewis
TTITLE12=Cloven Hoof Christian
EXTD=
EXTT0=
EXTT1=
EXTT2=
EXTT3=
EXTT4=
EXTT5=
EXTT6=
EXTT7=
EXTT8=
EXTT9=
EXTT10=
EXTT11=
EXTT12=
PLAYORDER=
